<svg width="376" height="376" viewBox="0 0 376 376" fill="none" xmlns="http://www.w3.org/2000/svg">
<g filter="url(#filter0_d_2709_7949)">
<rect x="20" y="20" width="336" height="336" rx="168" fill="white"/>
<path d="M58.0771 186.824V175.809H109.975V186.824H90.6292V239H77.4233V186.824H58.0771Z" fill="#2E6FF2"/>
<g clip-path="url(#clip0_2709_7949)">
<path d="M189.617 190.325C189.352 201.033 186.826 213.454 178.697 224.132C167.385 238.985 149.712 239.098 138.068 224.504C137.881 224.27 137.706 224.03 137.526 223.791C123.283 204.95 123.331 170.694 137.719 151.943C143.127 144.894 149.995 140.234 159.366 140.678C167.807 141.079 173.946 145.636 178.866 152.044C185.795 161.07 189.617 174.041 189.611 190.325H189.617ZM180.76 178.719C179.138 169.723 176.521 161.609 170.515 154.937C169.526 153.835 168.386 152.835 167.198 151.943C161.344 147.583 154.518 147.433 149.067 152.248C145.931 155.021 143.043 158.452 141.131 162.142C134.161 175.629 133.474 189.876 137.345 204.393C139.238 211.502 142.362 218.006 147.999 223C153.595 227.959 160.306 228.75 166.143 224.707C175.622 218.143 178.631 208.07 180.79 197.266C173.656 199.74 169.074 198.775 165.812 194.356C162.99 190.529 163.074 185.109 166.017 181.306C169.231 177.15 174.042 176.227 180.766 178.713L180.76 178.719Z" fill="#F87067"/>
<path d="M196.853 159.374C195.538 156.727 194.248 154.499 193.361 152.128C193.096 151.415 193.711 150.103 194.314 149.391C203.594 138.389 219.036 137.676 229.589 147.804C236.903 154.823 240.659 163.716 242.631 173.436C245.441 187.3 244.531 200.883 239.062 214.028C236.432 220.347 232.7 225.922 227.177 230.192C216.854 238.169 202.008 236.433 193.994 226.186C193.47 225.521 193.277 224.173 193.578 223.383C194.41 221.185 195.58 219.107 196.78 216.646C197.552 217.676 198.167 218.514 198.794 219.335C206.518 229.468 217.776 229.785 225.898 220.005C231.259 213.549 233.797 205.913 235.166 197.349C228.744 199.901 223.348 199.188 219.651 193.235C217.396 189.612 217.927 184.479 220.586 181.215C223.872 177.185 228.298 176.311 235.257 178.61C234.642 175.909 234.171 173.46 233.52 171.058C231.964 165.345 229.468 160.069 225.597 155.523C216.389 144.689 205.759 148.48 199.228 156.08C198.457 156.979 197.829 158.003 196.847 159.374H196.853Z" fill="#F87067"/>
</g>
<path d="M259.673 176.226H276.149L293.552 218.682H294.292L311.695 176.226H328.171V239.417H315.212V198.287H314.687L298.334 239.108H289.51L273.157 198.133H272.632V239.417H259.673V176.226Z" fill="#2E6FF2"/>
</g>
<defs>
<filter id="filter0_d_2709_7949" x="0" y="0" width="376" height="376" filterUnits="userSpaceOnUse" color-interpolation-filters="sRGB">
<feFlood flood-opacity="0" result="BackgroundImageFix"/>
<feColorMatrix in="SourceAlpha" type="matrix" values="0 0 0 0 0 0 0 0 0 0 0 0 0 0 0 0 0 0 127 0" result="hardAlpha"/>
<feOffset/>
<feGaussianBlur stdDeviation="10"/>
<feComposite in2="hardAlpha" operator="out"/>
<feColorMatrix type="matrix" values="0 0 0 0 0 0 0 0 0 0 0 0 0 0 0 0 0 0 0.25 0"/>
<feBlend mode="normal" in2="BackgroundImageFix" result="effect1_dropShadow_2709_7949"/>
<feBlend mode="normal" in="SourceGraphic" in2="effect1_dropShadow_2709_7949" result="shape"/>
</filter>
<clipPath id="clip0_2709_7949">
<rect width="117.299" height="94.7078" fill="white" transform="translate(126.882 140.646)"/>
</clipPath>
</defs>
</svg>
