<svg width="52" height="52" viewBox="0 0 52 52" fill="none" xmlns="http://www.w3.org/2000/svg">
<path d="M13 44.3083C13 40.4792 16.1042 37.375 19.9333 37.375H32.0667C35.8958 37.375 39 40.4792 39 44.3083C39 45.2656 38.224 46.0417 37.2667 46.0417H14.7333C13.776 46.0417 13 45.2656 13 44.3083Z" stroke="#2E6FF2" stroke-width="4" stroke-linecap="round"/>
<circle cx="26" cy="18.9585" r="13" stroke="#2E6FF2" stroke-width="4" stroke-linecap="round"/>
<path d="M8.66683 8.78223C6.94482 11.7406 5.9585 15.18 5.9585 18.8498C5.9585 22.5196 6.94482 25.959 8.66683 28.9174" stroke="#2E6FF2" stroke-width="4" stroke-linecap="round"/>
<path d="M32.6282 35.6353C31.6009 36.0413 31.0973 37.2032 31.5033 38.2304C31.9092 39.2577 33.0711 39.7613 34.0984 39.3554L32.6282 35.6353ZM44.0107 19.9235C43.5915 27.0768 39.0002 33.1171 32.6282 35.6353L34.0984 39.3554C41.8765 36.2815 47.4909 28.9089 48.0039 20.1576L44.0107 19.9235Z" fill="#2E6FF2"/>
<circle cx="25.9998" cy="18.9583" r="4.33333" stroke="#2E6FF2" stroke-width="4" stroke-linecap="round"/>
<circle cx="46.0418" cy="18.9583" r="1.08333" stroke="#2E6FF2" stroke-width="3.25" stroke-linecap="round"/>
</svg>
