<svg width="23" height="23" viewBox="0 0 23 23" fill="none" xmlns="http://www.w3.org/2000/svg">
<path fill-rule="evenodd" clip-rule="evenodd" d="M10.2046 3.17041C9.49549 3.17041 8.90394 3.71237 8.84202 4.41881C8.71254 5.89582 8.67978 7.37941 8.74382 8.8601C8.66652 8.86527 8.58922 8.87068 8.51194 8.87631L7.14656 8.97584C6.27385 9.03946 5.786 10.0126 6.25715 10.7499C7.26198 12.3225 8.55673 13.6896 10.0724 14.7783L10.6194 15.1713C11.0629 15.4899 11.6602 15.4899 12.1037 15.1713L12.6508 14.7783C14.1664 13.6896 15.4612 12.3225 16.466 10.7499C16.9371 10.0126 16.4493 9.03946 15.5766 8.97584L14.2112 8.87631C14.1339 8.87068 14.0566 8.86527 13.9793 8.8601C14.0433 7.37941 14.0106 5.89581 13.8811 4.4188C13.8192 3.71237 13.2276 3.17041 12.5185 3.17041H10.2046ZM10.1529 9.46308C10.0487 7.82479 10.0682 6.1809 10.2112 4.54541H12.5119C12.655 6.1809 12.6744 7.82479 12.5702 9.46308C12.5585 9.64675 12.621 9.82744 12.7435 9.9647C12.8661 10.102 13.0387 10.1843 13.2225 10.1934C13.5189 10.208 13.8151 10.2261 14.1112 10.2477L15.1028 10.32C14.2233 11.6155 13.1219 12.7469 11.8485 13.6616L11.3616 14.0114L10.8746 13.6616C9.60123 12.7469 8.49987 11.6155 7.6203 10.32L8.61191 10.2477C8.90798 10.2261 9.20425 10.208 9.50064 10.1934C9.68446 10.1843 9.85698 10.102 9.97957 9.9647C10.1022 9.82743 10.1646 9.64675 10.1529 9.46308Z" fill="black"/>
<path d="M5.63232 15.7746C5.63232 15.3949 5.32452 15.0871 4.94482 15.0871C4.56513 15.0871 4.25732 15.3949 4.25732 15.7746V17.6079C4.25732 18.4939 4.97553 19.2121 5.86149 19.2121H16.8615C17.7474 19.2121 18.4657 18.4939 18.4657 17.6079V15.7746C18.4657 15.3949 18.1579 15.0871 17.7782 15.0871C17.3985 15.0871 17.0907 15.3949 17.0907 15.7746V17.6079C17.0907 17.7345 16.9881 17.8371 16.8615 17.8371H5.86149C5.73493 17.8371 5.63232 17.7345 5.63232 17.6079V15.7746Z" fill="black"/>
</svg>
