<svg width="199" height="28" viewBox="0 0 199 28" fill="none" xmlns="http://www.w3.org/2000/svg">
<path d="M0.844079 22.1672V18.4155L11.8958 0.953973H15.0244V6.29544H13.1167L5.67684 18.0848V18.2883H21.1035V22.1672H0.844079ZM13.2694 27V21.0226L13.3202 19.3439V0.953973H17.7715V27H13.2694ZM34.7942 27.496C32.7 27.496 30.9026 26.9661 29.4019 25.9063C27.9096 24.838 26.7608 23.2991 25.9553 21.2897C25.1584 19.2718 24.7599 16.8427 24.7599 14.0024C24.7684 11.1621 25.1711 8.74574 25.9681 6.75328C26.7735 4.75235 27.9224 3.22622 29.4146 2.17488C30.9153 1.12354 32.7085 0.597875 34.7942 0.597875C36.8799 0.597875 38.6731 1.12354 40.1738 2.17488C41.6745 3.22622 42.8234 4.75235 43.6204 6.75328C44.4258 8.75422 44.8285 11.1706 44.8285 14.0024C44.8285 16.8512 44.4258 19.2845 43.6204 21.3024C42.8234 23.3118 41.6745 24.8465 40.1738 25.9063C38.6816 26.9661 36.8884 27.496 34.7942 27.496ZM34.7942 23.5153C36.4221 23.5153 37.7066 22.7141 38.6477 21.1117C39.5973 19.5007 40.0721 17.131 40.0721 14.0024C40.0721 11.9337 39.8559 10.1956 39.4235 8.78813C38.9911 7.38069 38.3806 6.32088 37.5921 5.60868C36.8036 4.88801 35.871 4.52767 34.7942 4.52767C33.1748 4.52767 31.8946 5.33313 30.9534 6.94405C30.0123 8.54649 29.5375 10.8993 29.529 14.0024C29.5206 16.0797 29.7283 17.8262 30.1522 19.2422C30.5846 20.6581 31.1951 21.7264 31.9836 22.447C32.7721 23.1592 33.709 23.5153 34.7942 23.5153ZM48.5835 22.1672V18.4155L59.6352 0.953973H62.7638V6.29544H60.8561L53.4162 18.0848V18.2883H68.8429V22.1672H48.5835ZM61.0087 27V21.0226L61.0596 19.3439V0.953973H65.5108V27H61.0087ZM82.044 27V0.953973H98.9841V4.90921H86.7623V11.9803H98.1065V15.9355H86.7623V23.0448H99.0858V27H82.044ZM103.798 27V0.953973H113.565C115.566 0.953973 117.245 1.30159 118.601 1.99683C119.966 2.69207 120.996 3.6671 121.692 4.92192C122.395 6.16827 122.747 7.62233 122.747 9.28412C122.747 10.9544 122.391 12.4042 121.679 13.6336C120.975 14.8545 119.937 15.7999 118.563 16.4697C117.19 17.131 115.502 17.4617 113.501 17.4617H106.545V13.5446H112.866C114.036 13.5446 114.994 13.3835 115.74 13.0613C116.486 12.7306 117.037 12.2516 117.393 11.6242C117.758 10.9883 117.94 10.2083 117.94 9.28412C117.94 8.35996 117.758 7.57146 117.393 6.91862C117.028 6.25729 116.473 5.75706 115.727 5.41792C114.981 5.0703 114.019 4.89649 112.84 4.89649H108.516V27H103.798ZM117.253 15.1979L123.701 27H118.436L112.102 15.1979H117.253ZM127.09 27V0.953973H136.858C138.859 0.953973 140.537 1.30159 141.894 1.99683C143.259 2.69207 144.289 3.6671 144.984 4.92192C145.688 6.16827 146.04 7.62233 146.04 9.28412C146.04 10.9544 145.684 12.4042 144.972 13.6336C144.268 14.8545 143.229 15.7999 141.856 16.4697C140.482 17.131 138.795 17.4617 136.794 17.4617H129.837V13.5446H136.158C137.328 13.5446 138.286 13.3835 139.032 13.0613C139.778 12.7306 140.33 12.2516 140.686 11.6242C141.05 10.9883 141.233 10.2083 141.233 9.28412C141.233 8.35996 141.05 7.57146 140.686 6.91862C140.321 6.25729 139.766 5.75706 139.02 5.41792C138.274 5.0703 137.311 4.89649 136.133 4.89649H131.809V27H127.09ZM140.546 15.1979L146.994 27H141.729L135.395 15.1979H140.546ZM173.657 13.977C173.657 16.7834 173.131 19.187 172.08 21.188C171.037 23.1804 169.612 24.7066 167.806 25.7664C166.009 26.8262 163.97 27.3561 161.689 27.3561C159.408 27.3561 157.365 26.8262 155.559 25.7664C153.762 24.6981 152.337 23.1677 151.286 21.1753C150.243 19.1743 149.722 16.7749 149.722 13.977C149.722 11.1706 150.243 8.77117 151.286 6.77872C152.337 4.77779 153.762 3.24741 155.559 2.1876C157.365 1.12778 159.408 0.597875 161.689 0.597875C163.97 0.597875 166.009 1.12778 167.806 2.1876C169.612 3.24741 171.037 4.77779 172.08 6.77872C173.131 8.77117 173.657 11.1706 173.657 13.977ZM168.913 13.977C168.913 12.0015 168.603 10.3355 167.984 8.9789C167.374 7.61385 166.526 6.58371 165.441 5.88848C164.356 5.18476 163.105 4.8329 161.689 4.8329C160.273 4.8329 159.023 5.18476 157.937 5.88848C156.852 6.58371 156 7.61385 155.381 8.9789C154.771 10.3355 154.465 12.0015 154.465 13.977C154.465 15.9525 154.771 17.6228 155.381 18.9878C156 20.3444 156.852 21.3745 157.937 22.0782C159.023 22.7735 160.273 23.1211 161.689 23.1211C163.105 23.1211 164.356 22.7735 165.441 22.0782C166.526 21.3745 167.374 20.3444 167.984 18.9878C168.603 17.6228 168.913 15.9525 168.913 13.977ZM178.117 27V0.953973H187.885C189.885 0.953973 191.564 1.30159 192.921 1.99683C194.286 2.69207 195.316 3.6671 196.011 4.92192C196.715 6.16827 197.067 7.62233 197.067 9.28412C197.067 10.9544 196.711 12.4042 195.999 13.6336C195.295 14.8545 194.256 15.7999 192.883 16.4697C191.509 17.131 189.822 17.4617 187.821 17.4617H180.864V13.5446H187.185C188.355 13.5446 189.313 13.3835 190.059 13.0613C190.805 12.7306 191.357 12.2516 191.713 11.6242C192.077 10.9883 192.259 10.2083 192.259 9.28412C192.259 8.35996 192.077 7.57146 191.713 6.91862C191.348 6.25729 190.793 5.75706 190.047 5.41792C189.3 5.0703 188.338 4.89649 187.16 4.89649H182.836V27H178.117ZM191.573 15.1979L198.021 27H192.755L186.422 15.1979H191.573Z" fill="#F87067"/>
</svg>