<svg width="80" height="65" viewBox="0 0 80 65" fill="none" xmlns="http://www.w3.org/2000/svg">
<g clip-path="url(#clip0_3471_50438)">
<mask id="mask0_3471_50438" style="mask-type:luminance" maskUnits="userSpaceOnUse" x="0" y="0" width="80" height="65">
<path d="M80 0H0V65H80V0Z" fill="white"/>
</mask>
<g mask="url(#mask0_3471_50438)">
<path d="M42.7862 34.0952C42.6053 41.4444 40.8821 49.9691 35.3386 57.2977C27.6236 67.491 15.5699 67.5691 7.62869 57.5526C7.50119 57.3923 7.38194 57.2279 7.25856 57.0634C-2.45512 44.1325 -2.42222 20.6217 7.39012 7.75237C11.0791 2.91459 15.7631 -0.283216 22.1539 0.020945C27.9114 0.296334 32.0979 3.42426 35.4537 7.82224C40.1789 14.0164 42.7862 22.9193 42.7821 34.0952H42.7862ZM36.745 26.1294C35.6388 19.9558 33.8539 14.3864 29.7579 9.80755C29.0834 9.05124 28.3062 8.3648 27.4961 7.75237C23.5028 4.7601 18.8475 4.65734 15.1298 7.96199C12.9913 9.86505 11.0214 12.2202 9.71781 14.7522C4.96379 24.0086 4.49497 33.7869 7.13519 43.7502C8.4265 48.6291 10.5567 53.0929 14.4019 56.5209C18.2183 59.9242 22.7955 60.4667 26.7764 57.6923C33.2412 53.1874 35.2933 46.2739 36.7656 38.859C31.9005 40.5566 28.775 39.8948 26.5502 36.8614C24.6256 34.2349 24.6831 30.5151 26.69 27.9051C28.8819 25.0526 32.1637 24.4196 36.7491 26.1254L36.745 26.1294Z" fill="#F87067"/>
<path d="M47.7203 12.8529C46.8238 11.0361 45.9437 9.50712 45.3392 7.87944C45.1582 7.39031 45.5777 6.49019 45.989 6.00106C52.318 -1.54953 62.8499 -2.03866 70.0468 4.91183C75.0355 9.72906 77.5974 15.8329 78.9424 22.5038C80.8587 32.0191 80.2374 41.3413 76.5074 50.3633C74.7143 54.6997 72.1693 58.5264 68.4018 61.457C61.3614 66.9319 51.2365 65.74 45.771 58.7072C45.4132 58.2509 45.2816 57.3261 45.4872 56.7836C46.0547 55.2751 46.8526 53.8489 47.671 52.1595C48.1973 52.8665 48.6168 53.4419 49.0445 54.0051C54.3126 60.9596 61.9906 61.1775 67.5299 54.4654C71.1862 50.0345 72.9174 44.7939 73.8512 38.9162C69.4712 40.6672 65.7905 40.1781 63.2693 36.0924C61.7315 33.6057 62.0934 30.0832 63.9068 27.8431C66.148 25.0769 69.1668 24.4768 73.9124 26.0551C73.493 24.2014 73.1724 22.5203 72.728 20.8721C71.6674 16.9509 69.9649 13.3297 67.3243 10.21C61.0447 2.77448 53.7944 5.37629 49.3406 10.5922C48.8142 11.2088 48.3865 11.9116 47.7162 12.8529H47.7203Z" fill="#F87067"/>
</g>
</g>
<defs>
<clipPath id="clip0_3471_50438">
<rect width="80" height="65" fill="white"/>
</clipPath>
</defs>
</svg>