<svg width="40" height="40" viewBox="0 0 40 40" fill="none" xmlns="http://www.w3.org/2000/svg">
<path d="M10.0003 31.6668H15.0003V23.3335C15.0003 22.8613 15.1603 22.4657 15.4803 22.1468C15.8003 21.8279 16.1959 21.6679 16.667 21.6668H23.3337C23.8059 21.6668 24.202 21.8268 24.522 22.1468C24.842 22.4668 25.0014 22.8624 25.0003 23.3335V31.6668H30.0003V16.6668L20.0003 9.16683L10.0003 16.6668V31.6668ZM6.66699 31.6668V16.6668C6.66699 16.1391 6.78533 15.6391 7.02199 15.1668C7.25866 14.6946 7.58477 14.3057 8.00033 14.0002L18.0003 6.50016C18.5837 6.05572 19.2503 5.8335 20.0003 5.8335C20.7503 5.8335 21.417 6.05572 22.0003 6.50016L32.0003 14.0002C32.417 14.3057 32.7437 14.6946 32.9803 15.1668C33.217 15.6391 33.3348 16.1391 33.3337 16.6668V31.6668C33.3337 32.5835 33.007 33.3685 32.3537 34.0218C31.7003 34.6752 30.9159 35.0013 30.0003 35.0002H23.3337C22.8614 35.0002 22.4659 34.8402 22.147 34.5202C21.8281 34.2002 21.6681 33.8046 21.667 33.3335V25.0002H18.3337V33.3335C18.3337 33.8057 18.1737 34.2018 17.8537 34.5218C17.5337 34.8418 17.1381 35.0013 16.667 35.0002H10.0003C9.08366 35.0002 8.29921 34.6741 7.64699 34.0218C6.99477 33.3696 6.6681 32.5846 6.66699 31.6668Z" fill="#9CA4BA"/>
</svg>
