<svg width="33" height="33" viewBox="0 0 33 33" fill="none" xmlns="http://www.w3.org/2000/svg">
<path fill-rule="evenodd" clip-rule="evenodd" d="M25.101 11.9009C25.2645 11.7648 25.4753 11.6991 25.6872 11.7184C25.899 11.7376 26.0946 11.8402 26.2308 12.0036L29.5735 16.0155C29.7037 16.1796 29.7646 16.3881 29.7431 16.5965C29.7216 16.8049 29.6195 16.9966 29.4586 17.1307C29.2977 17.2648 29.0907 17.3306 28.8819 17.3142C28.6731 17.2977 28.479 17.2002 28.341 17.0426L24.9983 13.0307C24.8622 12.8672 24.7965 12.6564 24.8158 12.4445C24.8351 12.2327 24.9377 12.0371 25.101 11.9009Z" fill="white"/>
<path fill-rule="evenodd" clip-rule="evenodd" d="M25.101 21.157C24.9377 21.0207 24.8351 20.8252 24.8158 20.6134C24.7965 20.4015 24.8622 20.1907 24.9983 20.0272L28.341 16.0153C28.4075 15.9315 28.4901 15.8618 28.584 15.8104C28.6778 15.759 28.7809 15.7269 28.8874 15.7159C28.9938 15.7049 29.1013 15.7154 29.2037 15.7466C29.306 15.7778 29.4011 15.8292 29.4833 15.8976C29.5655 15.9661 29.6331 16.0504 29.6823 16.1454C29.7314 16.2404 29.7611 16.3443 29.7695 16.451C29.7779 16.5577 29.7649 16.6649 29.7312 16.7665C29.6976 16.868 29.644 16.9618 29.5735 17.0424L26.2308 21.0543C26.0946 21.2177 25.899 21.3203 25.6872 21.3395C25.4753 21.3588 25.2645 21.2931 25.101 21.157Z" fill="white"/>
<path fill-rule="evenodd" clip-rule="evenodd" d="M28.5604 16.5289C28.5604 16.7417 28.4759 16.9458 28.3254 17.0962C28.1749 17.2467 27.9708 17.3313 27.758 17.3313H15.7223C15.5095 17.3313 15.3054 17.2467 15.155 17.0962C15.0045 16.9458 14.9199 16.7417 14.9199 16.5289C14.9199 16.3161 15.0045 16.112 15.155 15.9615C15.3054 15.811 15.5095 15.7265 15.7223 15.7265H27.758C27.9708 15.7265 28.1749 15.811 28.3254 15.9615C28.4759 16.112 28.5604 16.3161 28.5604 16.5289ZM6.09375 5.29554C6.09375 5.08274 6.17829 4.87865 6.32876 4.72818C6.47924 4.5777 6.68333 4.49316 6.89613 4.49316H21.339C21.5518 4.49316 21.7559 4.5777 21.9064 4.72818C22.0568 4.87865 22.1414 5.08274 22.1414 5.29554C22.1414 5.50835 22.0568 5.71244 21.9064 5.86291C21.7559 6.01339 21.5518 6.09793 21.339 6.09793H6.89613C6.68333 6.09793 6.47924 6.01339 6.32876 5.86291C6.17829 5.71244 6.09375 5.50835 6.09375 5.29554ZM6.09375 27.7622C6.09375 27.5494 6.17829 27.3453 6.32876 27.1948C6.47924 27.0444 6.68333 26.9598 6.89613 26.9598H21.339C21.5518 26.9598 21.7559 27.0444 21.9064 27.1948C22.0568 27.3453 22.1414 27.5494 22.1414 27.7622C22.1414 27.975 22.0568 28.1791 21.9064 28.3296C21.7559 28.4801 21.5518 28.5646 21.339 28.5646H6.89613C6.68333 28.5646 6.47924 28.4801 6.32876 28.3296C6.17829 28.1791 6.09375 27.975 6.09375 27.7622Z" fill="white"/>
<path fill-rule="evenodd" clip-rule="evenodd" d="M21.339 4.49316C21.5518 4.49316 21.7559 4.5777 21.9064 4.72818C22.0568 4.87865 22.1414 5.08274 22.1414 5.29554V11.7146C22.1414 11.9274 22.0568 12.1315 21.9064 12.282C21.7559 12.4324 21.5518 12.517 21.339 12.517C21.1262 12.517 20.9221 12.4324 20.7716 12.282C20.6211 12.1315 20.5366 11.9274 20.5366 11.7146V5.29554C20.5366 5.08274 20.6211 4.87865 20.7716 4.72818C20.9221 4.5777 21.1262 4.49316 21.339 4.49316ZM21.339 20.5408C21.5518 20.5408 21.7559 20.6253 21.9064 20.7758C22.0568 20.9263 22.1414 21.1304 22.1414 21.3432V27.7622C22.1414 27.975 22.0568 28.1791 21.9064 28.3296C21.7559 28.4801 21.5518 28.5646 21.339 28.5646C21.1262 28.5646 20.9221 28.4801 20.7716 28.3296C20.6211 28.1791 20.5366 27.975 20.5366 27.7622V21.3432C20.5366 21.1304 20.6211 20.9263 20.7716 20.7758C20.9221 20.6253 21.1262 20.5408 21.339 20.5408ZM6.89613 4.49316C7.10894 4.49316 7.31302 4.5777 7.4635 4.72818C7.61398 4.87865 7.69851 5.08274 7.69851 5.29554V27.7622C7.69851 27.975 7.61398 28.1791 7.4635 28.3296C7.31302 28.4801 7.10894 28.5646 6.89613 28.5646C6.68333 28.5646 6.47924 28.4801 6.32876 28.3296C6.17829 28.1791 6.09375 27.975 6.09375 27.7622V5.29554C6.09375 5.08274 6.17829 4.87865 6.32876 4.72818C6.47924 4.5777 6.68333 4.49316 6.89613 4.49316Z" fill="white"/>
</svg>
