<svg width="40" height="40" viewBox="0 0 40 40" fill="none" xmlns="http://www.w3.org/2000/svg">
<path d="M11.6663 15H3.33301V11.6667H11.6663V15ZM11.6663 20H3.33301V23.3333H11.6663V20ZM34.3163 31.6667L27.933 25.2833C26.5997 26.15 25.033 26.6667 23.333 26.6667C18.733 26.6667 14.9997 22.9333 14.9997 18.3333C14.9997 13.7333 18.733 10 23.333 10C27.933 10 31.6663 13.7333 31.6663 18.3333C31.6663 20.0333 31.1497 21.6 30.283 22.9167L36.6663 29.3167L34.3163 31.6667ZM28.333 18.3333C28.333 15.5833 26.083 13.3333 23.333 13.3333C20.583 13.3333 18.333 15.5833 18.333 18.3333C18.333 21.0833 20.583 23.3333 23.333 23.3333C26.083 23.3333 28.333 21.0833 28.333 18.3333ZM3.33301 31.6667H19.9997V28.3333H3.33301V31.6667Z" fill="#9CA4BA"/>
</svg>
