<svg width="33" height="33" viewBox="0 0 33 33" fill="none" xmlns="http://www.w3.org/2000/svg">
<g clip-path="url(#clip0_7002_27804)">
<path d="M26.5511 3.60005C27.599 4.42169 28.3211 5.74883 28.6164 7.13855L28.7207 7.18028L32.0024 8.69838C32.1858 8.78277 32.3412 8.91778 32.4503 9.08751C32.5595 9.25723 32.6179 9.45462 32.6187 9.65642V29.5025C32.6175 29.6674 32.5781 29.8297 32.5037 29.9768C32.4292 30.1239 32.3217 30.2518 32.1896 30.3503C32.0574 30.4489 31.9042 30.5155 31.742 30.5449C31.5798 30.5744 31.413 30.5658 31.2546 30.5199L22.1572 27.9523L11.3411 30.934C11.146 30.9879 10.9397 30.9857 10.7458 30.9275L1.28409 28.1112C1.0654 28.047 0.873259 27.9139 0.736221 27.7317C0.599184 27.5496 0.52456 27.3281 0.523438 27.1002L0.523438 6.89784C0.523438 6.19174 1.21028 5.68464 1.89551 5.88363L11.0459 8.54914L15.6965 7.12572C15.7607 7.10646 15.8259 7.09308 15.8922 7.0856C16.072 6.03287 16.5743 5.02187 17.4168 4.03655C18.4165 2.86507 20.1705 2.17823 21.8796 2.09639C23.6529 2.01134 25.0073 2.39006 26.5495 3.59845M2.66259 8.31484V26.3123L10.4778 28.6376V10.5888L2.66259 8.31484ZM15.8361 9.30017L12.6169 10.2839V28.384L20.745 26.147V20.8593C20.745 20.2751 21.2249 19.8017 21.8154 19.8017C22.406 19.8017 22.8842 20.2751 22.8842 20.8609V25.9592L30.4795 28.1016V10.3288L28.6822 9.49434C28.6522 9.67087 28.6132 9.84365 28.565 10.0127C28.2174 11.2437 27.6318 12.3946 26.8415 13.4003L22.8665 18.3639C22.7619 18.4944 22.6282 18.5987 22.4762 18.6684C22.3241 18.7382 22.1579 18.7715 21.9907 18.7658C21.8235 18.76 21.66 18.7153 21.5131 18.6352C21.3662 18.5551 21.24 18.4419 21.1446 18.3045L17.4296 12.9237C16.8155 12.0689 16.387 11.3008 16.1442 10.6193C15.9915 10.1928 15.8881 9.75019 15.8361 9.30017ZM21.9823 4.21147C20.8173 4.26763 19.6201 4.73622 19.0504 5.4022C18.3652 6.20458 18.0282 6.95561 17.9608 7.71627C17.8805 8.63259 17.9351 9.27931 18.163 9.91961C18.3315 10.393 18.6669 10.9932 19.1852 11.7169L22.0914 15.9246L25.1565 12.0973C25.7753 11.3073 26.2338 10.404 26.5061 9.43818C26.8913 8.09018 26.3104 6.1099 25.2223 5.25938C24.107 4.38478 23.2645 4.14888 21.9839 4.21147M22.2054 5.32999C23.977 5.32999 25.4149 6.7502 25.4149 8.5026C25.4094 9.34873 25.0683 10.1581 24.4665 10.7529C23.8648 11.3478 23.0515 11.6795 22.2054 11.6752C20.4337 11.6752 18.9958 10.255 18.9958 8.5026C18.9958 6.7502 20.4337 5.32999 22.2054 5.32999ZM22.2054 7.44506C22.0657 7.44422 21.9271 7.4709 21.7977 7.52359C21.6683 7.57628 21.5506 7.65394 21.4512 7.75214C21.3518 7.85035 21.2727 7.96716 21.2184 8.09593C21.1642 8.22469 21.1358 8.36288 21.135 8.5026C21.135 9.08673 21.6148 9.56014 22.2054 9.56014C22.3451 9.56077 22.4836 9.53388 22.6129 9.481C22.7422 9.42811 22.8599 9.35027 22.9591 9.25192C23.0584 9.15357 23.1373 9.03663 23.1913 8.90779C23.2454 8.77895 23.2735 8.64072 23.2741 8.501C23.272 8.21937 23.1583 7.95008 22.958 7.75215C22.7576 7.55421 22.487 7.44378 22.2054 7.44506Z" fill="white"/>
</g>
<defs>
<clipPath id="clip0_7002_27804">
<rect width="32.0952" height="32.454" fill="white" transform="translate(0.523438 0.302002)"/>
</clipPath>
</defs>
</svg>
