<svg width="32" height="32" viewBox="0 0 32 32" fill="none" xmlns="http://www.w3.org/2000/svg">
<path d="M15.9993 5C13.2379 5 10.9993 7.23858 10.9993 10C10.9993 12.7614 13.2379 15 15.9993 15C18.7608 15 20.9993 12.7614 20.9993 10C20.9993 7.23858 18.7608 5 15.9993 5Z" fill="#FF9000"/>
<path d="M10.666 17.6667C7.90459 17.6667 5.66602 19.9052 5.66602 22.6667V24.251C5.66602 25.2554 6.39386 26.1117 7.38504 26.2735C13.0901 27.2049 18.9085 27.2049 24.6137 26.2735C25.6048 26.1117 26.3327 25.2554 26.3327 24.251V22.6667C26.3327 19.9052 24.0941 17.6667 21.3327 17.6667H20.8782C20.6322 17.6667 20.3878 17.7056 20.1539 17.7819L18.9999 18.1587C17.0502 18.7954 14.9485 18.7954 12.9988 18.1587L11.8448 17.7819C11.6109 17.7056 11.3665 17.6667 11.1205 17.6667H10.666Z" fill="#FF9000"/>
</svg>
