<svg width="48" height="48" viewBox="0 0 48 48" fill="none" xmlns="http://www.w3.org/2000/svg">
<g clip-path="url(#clip0_5684_15585)">
<path d="M45.1883 46.2872C43.7486 41.7985 40.9211 37.8831 37.1133 35.1052C33.3051 32.3274 28.7132 30.8306 23.9996 30.8306C19.286 30.8306 14.6941 32.3274 10.886 35.1052C7.078 37.8831 4.25042 41.7985 2.81104 46.2872H45.1883Z" stroke="#2E6FF2" stroke-width="3.42857" stroke-linecap="round" stroke-linejoin="round"/>
<path d="M23.9987 30.8582C32.0123 30.8582 38.5087 24.3619 38.5087 16.3483C38.5087 8.33467 32.0123 1.83838 23.9987 1.83838C15.9851 1.83838 9.48877 8.33467 9.48877 16.3483C9.48877 24.3619 15.9851 30.8582 23.9987 30.8582Z" stroke="#2E6FF2" stroke-width="3.42857" stroke-linecap="round" stroke-linejoin="round"/>
<path d="M28.7366 21.9624C28.7366 21.9624 27.5327 24.3313 23.9987 24.3313C20.4647 24.3313 19.2607 21.9624 19.2607 21.9624" stroke="#2E6FF2" stroke-width="3.42857" stroke-linecap="round" stroke-linejoin="round"/>
<path d="M38.2465 13.5857C38.2139 13.5859 38.1817 13.586 38.1494 13.586C33.9317 13.586 30.1451 11.7408 27.5526 8.8136C24.9602 11.7409 21.1736 13.5861 16.9559 13.5861C14.5068 13.5861 12.2029 12.9639 10.1938 11.8688C12.0814 6.04743 17.5487 1.83838 23.9991 1.83838C31.0681 1.83838 36.9563 6.89336 38.2465 13.5857Z" stroke="#2E6FF2" stroke-width="3.42857" stroke-linecap="round" stroke-linejoin="round"/>
</g>
<defs>
<clipPath id="clip0_5684_15585">
<rect width="48" height="48" fill="white"/>
</clipPath>
</defs>
</svg>
