<svg width="33" height="33" viewBox="0 0 33 33" fill="none" xmlns="http://www.w3.org/2000/svg">
<path d="M28.833 7.55362L16.7973 3.54171C16.5914 3.47308 16.3688 3.47308 16.1629 3.54171L4.12719 7.55362C3.92748 7.62019 3.75378 7.74792 3.6307 7.9187C3.50761 8.08949 3.44139 8.29467 3.44141 8.50519V18.535C3.44141 18.801 3.54708 19.0561 3.73517 19.2442C3.92327 19.4323 4.17838 19.5379 4.44438 19.5379C4.71039 19.5379 4.9655 19.4323 5.15359 19.2442C5.34169 19.0561 5.44736 18.801 5.44736 18.535V9.89682L9.65861 11.2997C8.53973 13.1074 8.18394 15.2851 8.66934 17.3548C9.15474 19.4246 10.4417 21.217 12.2475 22.3387C9.99084 23.2239 8.04005 24.8249 6.61332 27.0139C6.53912 27.1241 6.48758 27.2481 6.4617 27.3785C6.43581 27.5088 6.4361 27.643 6.46255 27.7733C6.48899 27.9036 6.54107 28.0273 6.61574 28.1372C6.69042 28.2472 6.78621 28.3412 6.89754 28.4138C7.00887 28.4865 7.13353 28.5362 7.26426 28.5602C7.39499 28.5842 7.5292 28.582 7.65907 28.5537C7.78894 28.5254 7.91189 28.4716 8.02077 28.3953C8.12965 28.3191 8.22229 28.222 8.2933 28.1096C10.1827 25.211 13.1665 23.5498 16.4801 23.5498C19.7937 23.5498 22.7775 25.211 24.6669 28.1096C24.814 28.3283 25.0412 28.4802 25.2995 28.5326C25.5577 28.5851 25.8263 28.5338 26.047 28.3898C26.2677 28.2458 26.4229 28.0208 26.479 27.7633C26.5351 27.5058 26.4877 27.2366 26.3469 27.0139C24.9201 24.8249 22.9618 23.2239 20.7127 22.3387C22.5168 21.2171 23.8025 19.4258 24.2878 17.3576C24.7731 15.2894 24.4185 13.1131 23.3016 11.306L28.833 9.46303C29.0328 9.39649 29.2065 9.26878 29.3296 9.09799C29.4528 8.92721 29.519 8.722 29.519 8.51146C29.519 8.30092 29.4528 8.09571 29.3296 7.92492C29.2065 7.75413 29.0328 7.62642 28.833 7.55988V7.55362ZM22.498 15.526C22.4982 16.4774 22.2729 17.4153 21.8405 18.2628C21.4081 19.1102 20.781 19.8431 20.0105 20.4012C19.24 20.9594 18.3482 21.3269 17.4082 21.4736C16.4682 21.6203 15.5068 21.5421 14.6028 21.2453C13.6989 20.9485 12.8782 20.4416 12.2082 19.7663C11.5381 19.0909 11.0377 18.2663 10.748 17.36C10.4583 16.4538 10.3876 15.4918 10.5417 14.553C10.6958 13.6142 11.0703 12.7253 11.6345 11.9592L16.1629 13.4637C16.3688 13.5323 16.5914 13.5323 16.7973 13.4637L21.3257 11.9592C22.0876 12.9923 22.4985 14.2424 22.498 15.526ZM16.4801 11.4602L7.61629 8.50519L16.4801 5.55017L25.3439 8.50519L16.4801 11.4602Z" fill="white"/>
</svg>
