<svg width="238" height="37" viewBox="0 0 238 37" fill="none" xmlns="http://www.w3.org/2000/svg">
<path d="M0 10.696V5.38037H22.1352V10.696H13.8839V35.8745H8.25138V10.696H0ZM31.956 36.3212C29.8767 36.3212 28.0869 35.8448 26.5867 34.8918C25.0952 33.9289 23.9459 32.569 23.1387 30.812C22.3316 29.0451 21.928 26.9556 21.928 24.5435C21.928 22.1909 22.3316 20.1262 23.1387 18.3493C23.9459 16.5725 25.082 15.1878 26.5472 14.1951C28.0211 13.2024 29.7494 12.7061 31.7322 12.7061C33.0658 12.7061 34.3072 12.9493 35.4565 13.4357C36.6148 13.9122 37.6235 14.6319 38.4833 15.5947C39.3519 16.5576 40.0275 17.7686 40.51 19.2278C40.9925 20.6771 41.2338 22.3745 41.2338 24.3201V26.0622H24.1652V22.1313H35.9566C35.9566 21.2181 35.7813 20.4091 35.4302 19.7043C35.0793 18.9995 34.5924 18.4486 33.9694 18.0515C33.3553 17.6446 32.6403 17.441 31.8244 17.441C30.9733 17.441 30.2188 17.6644 29.5608 18.1111C28.9116 18.5479 28.4027 19.1385 28.0343 19.883C27.6658 20.6175 27.4772 21.4365 27.4684 22.3398V26.0771C27.4684 27.2087 27.6526 28.1865 28.0211 29.0104C28.3984 29.8343 28.9292 30.4696 29.6135 30.9162C30.2978 31.363 31.1093 31.5863 32.0481 31.5863C32.671 31.5863 33.2413 31.487 33.7589 31.2885C34.2765 31.09 34.7196 30.7922 35.0881 30.3951C35.4565 29.998 35.7373 29.5117 35.9303 28.9359L41.1156 29.3231C40.8521 30.7326 40.3125 31.9635 39.4968 33.0157C38.6897 34.058 37.6454 34.872 36.3646 35.4576C35.0924 36.0334 33.6229 36.3212 31.956 36.3212ZM50.6563 36.3063C49.3667 36.3063 48.2175 36.0532 47.2084 35.547C46.1997 35.0308 45.401 34.2714 44.8133 33.2688C44.2344 32.2563 43.9446 30.9957 43.9446 29.4868C43.9446 28.2162 44.151 27.1491 44.5631 26.2856C44.9756 25.4219 45.537 24.7271 46.2478 24.201C46.9586 23.6749 47.7658 23.2778 48.6693 23.0098C49.5816 22.7418 50.5381 22.5532 51.5383 22.444C52.7138 22.305 53.6614 22.176 54.3808 22.0569C55.1001 21.9278 55.6222 21.7392 55.9469 21.4911C56.2715 21.2429 56.4338 20.8756 56.4338 20.3892V20.2999C56.4338 19.3569 56.1707 18.6273 55.6441 18.1111C55.1264 17.5949 54.3896 17.3368 53.4332 17.3368C52.4244 17.3368 51.6214 17.5899 51.0251 18.0962C50.4284 18.5925 50.0334 19.2179 49.8407 19.9723L44.6554 19.4958C44.9185 18.1061 45.4362 16.905 46.2082 15.8925C46.9805 14.8701 47.9763 14.0859 49.1955 13.54C50.424 12.9841 51.8452 12.7061 53.4595 12.7061C54.5824 12.7061 55.6574 12.855 56.6836 13.1528C57.719 13.4506 58.6358 13.9122 59.4341 14.5376C60.2412 15.1629 60.8775 15.967 61.3423 16.9497C61.8073 17.9225 62.0401 19.0889 62.0401 20.4488V35.8745H56.7232V32.703H56.5654C56.2407 33.4177 55.8064 34.048 55.2624 34.594C54.7184 35.13 54.065 35.5519 53.3016 35.8596C52.5382 36.1574 51.6566 36.3063 50.6563 36.3063ZM52.2621 31.9288C53.0867 31.9288 53.8149 31.7451 54.4467 31.3778C55.0782 31.0006 55.574 30.4944 55.9335 29.8591C56.2934 29.2238 56.4731 28.5041 56.4731 27.7001V25.273C56.2978 25.4021 56.0565 25.5212 55.7493 25.6304C55.451 25.7297 55.1134 25.824 54.7361 25.9133C54.3589 25.9927 53.9816 26.0671 53.6044 26.1367C53.2271 26.1962 52.8851 26.2508 52.5778 26.3004C51.9197 26.4096 51.3453 26.5833 50.8539 26.8216C50.3625 27.0598 49.9808 27.3824 49.7088 27.7894C49.4371 28.1865 49.3011 28.6828 49.3011 29.2784C49.3011 30.142 49.5772 30.8021 50.1301 31.2587C50.6916 31.7054 51.4023 31.9288 52.2621 31.9288ZM75.5224 36.3212C73.452 36.3212 71.6709 35.8249 70.1793 34.8322C68.6966 33.8297 67.5563 32.44 66.7576 30.6631C65.9683 28.8863 65.5732 26.8414 65.5732 24.5285C65.5732 22.1859 65.9727 20.1312 66.771 18.3642C67.5781 16.5874 68.7229 15.2026 70.2056 14.21C71.6883 13.2074 73.452 12.7061 75.4961 12.7061C77.2594 12.7061 78.8036 13.0684 80.1285 13.7931C81.4533 14.5177 82.5017 15.5352 83.2736 16.8455C84.0459 18.1558 84.4714 19.6944 84.5503 21.4613H79.2598C79.1108 20.3198 78.7158 19.4015 78.0754 18.7067C77.4439 18.0019 76.6145 17.6495 75.5884 17.6495C74.7197 17.6495 73.9608 17.9175 73.3115 18.4536C72.6711 18.9796 72.1708 19.749 71.8114 20.7615C71.4515 21.774 71.2718 22.9999 71.2718 24.4392C71.2718 25.8984 71.4471 27.1392 71.798 28.1617C72.1579 29.1841 72.6622 29.9633 73.3115 30.4993C73.9608 31.0354 74.7197 31.3034 75.5884 31.3034C76.2288 31.3034 76.8032 31.1545 77.3124 30.8567C77.8297 30.5589 78.2555 30.1271 78.5887 29.5613C78.9307 28.9856 79.1546 28.2957 79.2598 27.4916H84.5503C84.4625 29.2387 84.0415 30.7773 83.287 32.1074C82.541 33.4277 81.5104 34.46 80.1944 35.2045C78.8781 35.949 77.3209 36.3212 75.5224 36.3212ZM93.7457 22.6525V35.8745H88.1395V5.38037H93.5878V17.039H93.8246C94.2808 15.689 95.0179 14.6319 96.0356 13.8675C97.0536 13.0933 98.3299 12.7061 99.8652 12.7061C101.269 12.7061 102.493 13.0535 103.537 13.7484C104.59 14.4333 105.406 15.421 105.985 16.7115C106.573 17.992 106.862 19.5256 106.853 21.3124V35.8745H101.247V22.444C101.256 21.0344 100.94 19.9376 100.3 19.1534C99.6677 18.3692 98.7816 17.9771 97.6413 17.9771C96.8779 17.9771 96.2023 18.1607 95.6146 18.528C95.0354 18.8953 94.5792 19.4313 94.246 20.1361C93.9214 20.831 93.7546 21.6698 93.7457 22.6525ZM162.833 5.38037H169.86L177.283 25.8687H177.599L185.021 5.38037H192.048V35.8745H186.521V16.0266H186.297L179.323 35.7256H175.559L168.584 15.9521H168.36V35.8745H162.833V5.38037ZM205.771 36.3212C203.727 36.3212 201.959 35.8299 200.468 34.8471C198.985 33.8545 197.84 32.4747 197.033 30.7078C196.225 28.931 195.822 26.8712 195.822 24.5285C195.822 22.1661 196.225 20.1013 197.033 18.3344C197.84 16.5576 198.985 15.1778 200.468 14.1951C201.959 13.2024 203.727 12.7061 205.771 12.7061C207.815 12.7061 209.579 13.2024 211.061 14.1951C212.553 15.1778 213.702 16.5576 214.509 18.3344C215.316 20.1013 215.72 22.1661 215.72 24.5285C215.72 26.8712 215.316 28.931 214.509 30.7078C213.702 32.4747 212.553 33.8545 211.061 34.8471C209.579 35.8299 207.815 36.3212 205.771 36.3212ZM205.797 31.4076C206.727 31.4076 207.504 31.1098 208.127 30.5142C208.75 29.9087 209.219 29.0848 209.535 28.0425C209.859 27.0002 210.022 25.8141 210.022 24.4839C210.022 23.1538 209.859 21.9675 209.535 20.9253C209.219 19.883 208.75 19.0591 208.127 18.4536C207.504 17.8481 206.727 17.5453 205.797 17.5453C204.859 17.5453 204.069 17.8481 203.429 18.4536C202.797 19.0591 202.319 19.883 201.994 20.9253C201.678 21.9675 201.52 23.1538 201.52 24.4839C201.52 25.8141 201.678 27.0002 201.994 28.0425C202.319 29.0848 202.797 29.9087 203.429 30.5142C204.069 31.1098 204.859 31.4076 205.797 31.4076ZM224.972 22.6525V35.8745H219.365V13.0039H224.709V17.039H224.945C225.393 15.7089 226.143 14.6567 227.196 13.8824C228.248 13.0982 229.525 12.7061 231.025 12.7061C232.429 12.7061 233.653 13.0535 234.697 13.7484C235.741 14.4433 236.552 15.4359 237.131 16.7264C237.711 18.0069 238 19.5355 238 21.3124V35.8745H232.394V22.444C232.403 21.0444 232.087 19.9525 231.446 19.1682C230.806 18.3741 229.924 17.9771 228.801 17.9771C228.047 17.9771 227.38 18.1607 226.801 18.528C226.231 18.8953 225.783 19.4313 225.459 20.1361C225.143 20.831 224.981 21.6698 224.972 22.6525Z" fill="#2E6FF2"/>
<g clip-path="url(#clip0_2377_569)">
<mask id="mask0_2377_569" style="mask-type:luminance" maskUnits="userSpaceOnUse" x="111" y="0" width="48" height="37">
<path d="M158.612 0H111.177V36.2624H158.612V0Z" fill="white"/>
</mask>
<g mask="url(#mask0_2377_569)">
<path d="M136.547 19.0213C136.44 23.1213 135.418 27.8771 132.131 31.9656C127.557 37.6522 120.41 37.6958 115.701 32.1077C115.625 32.0183 115.555 31.9266 115.481 31.8349C109.722 24.6209 109.741 11.5047 115.559 4.3251C117.747 1.62618 120.524 -0.157813 124.314 0.0118725C127.727 0.165507 130.21 1.91052 132.199 4.36408C135.001 7.81971 136.547 12.7865 136.545 19.0213H136.547ZM132.965 14.5773C132.309 11.1332 131.251 8.02609 128.822 5.47165C128.422 5.04972 127.961 4.66677 127.481 4.3251C125.113 2.65576 122.353 2.59844 120.149 4.44204C118.881 5.50373 117.713 6.81765 116.94 8.23017C114.121 13.3941 113.843 18.8493 115.408 24.4077C116.174 27.1295 117.437 29.6198 119.717 31.5322C121.98 33.4308 124.694 33.7335 127.054 32.1857C130.888 29.6725 132.104 25.8156 132.977 21.6789C130.093 22.626 128.239 22.2568 126.92 20.5645C125.779 19.0993 125.813 17.024 127.003 15.568C128.303 13.9766 130.249 13.6234 132.968 14.5751L132.965 14.5773Z" fill="#F87067"/>
<path d="M139.473 7.1705C138.941 6.15696 138.419 5.30396 138.061 4.3959C137.954 4.12303 138.202 3.62086 138.446 3.34799C142.199 -0.864354 148.444 -1.13723 152.711 2.74033C155.669 5.42778 157.188 8.83298 157.986 12.5546C159.122 17.863 158.753 23.0637 156.542 28.0969C155.479 30.5161 153.969 32.6509 151.736 34.2859C147.561 37.3402 141.558 36.6753 138.317 32.7518C138.105 32.4973 138.027 31.9813 138.149 31.6787C138.485 30.8371 138.958 30.0414 139.443 29.099C139.756 29.4934 140.004 29.8144 140.258 30.1286C143.382 34.0084 147.934 34.13 151.219 30.3854C153.387 27.9135 154.413 24.9898 154.967 21.7108C152.37 22.6876 150.187 22.4147 148.692 20.1354C147.781 18.7481 147.995 16.783 149.07 15.5333C150.399 13.9901 152.189 13.6553 155.003 14.5358C154.754 13.5016 154.564 12.5638 154.301 11.6443C153.672 9.4567 152.662 7.4365 151.097 5.69608C147.373 1.54794 143.074 2.99944 140.433 5.90933C140.121 6.2533 139.868 6.64539 139.47 7.1705H139.473Z" fill="#F87067"/>
</g>
</g>
<defs>
<clipPath id="clip0_2377_569">
<rect width="47.4352" height="36.2624" fill="white" transform="translate(111.177)"/>
</clipPath>
</defs>
</svg>
