<svg width="23" height="23" viewBox="0 0 23 23" fill="none" xmlns="http://www.w3.org/2000/svg">
<path fill-rule="evenodd" clip-rule="evenodd" d="M10.8252 15.4332C10.116 15.4332 9.52447 14.8912 9.46254 14.1848C9.33307 12.7078 9.30031 11.2242 9.36435 9.74347C9.28705 9.7383 9.20976 9.73289 9.13248 9.72726L7.76706 9.62773C6.89434 9.56411 6.40649 8.59101 6.87765 7.85365C7.88248 6.2811 9.72428 4.52105 11.2399 3.4323C11.6834 3.11371 12.2808 3.11371 12.7243 3.4323C14.2399 4.52105 16.0817 6.2811 17.0866 7.85365C17.5577 8.59101 17.0699 9.56411 16.1972 9.62773L14.8317 9.72726C14.7545 9.73289 14.6772 9.73829 14.5999 9.74347C14.6639 11.2242 14.6312 12.7078 14.5017 14.1848C14.4397 14.8912 13.8482 15.4332 13.1391 15.4332H10.8252ZM10.7735 9.14049C10.6692 10.7788 10.6887 12.4227 10.8317 14.0582H13.1325C13.2755 12.4227 13.295 10.7788 13.1908 9.14049C13.1791 8.95682 13.2415 8.77613 13.3641 8.63887C13.4867 8.50161 13.6592 8.41923 13.8431 8.41017C14.1394 8.39557 14.4357 8.37748 14.7318 8.3559L15.7234 8.28361C14.8438 6.98809 13.7425 5.85669 12.4691 4.94199L11.9821 4.59215L11.4951 4.94199C10.2217 5.85669 9.12038 6.98809 8.24079 8.28361L9.23245 8.3559C9.52852 8.37748 9.82478 8.39557 10.1212 8.41017C10.305 8.41923 10.4775 8.50161 10.6001 8.63887C10.7227 8.77613 10.7851 8.95682 10.7735 9.14049Z" fill="black"/>
<path d="M6.25293 15.7748C6.25293 15.3951 5.94513 15.0873 5.56543 15.0873C5.18573 15.0873 4.87793 15.3951 4.87793 15.7748V17.6082C4.87793 18.4941 5.59614 19.2123 6.4821 19.2123H17.4821C18.3681 19.2123 19.0863 18.4941 19.0863 17.6082V15.7748C19.0863 15.3951 18.7785 15.0873 18.3988 15.0873C18.0191 15.0873 17.7113 15.3951 17.7113 15.7748V17.6082C17.7113 17.7347 17.6087 17.8373 17.4821 17.8373H6.4821C6.35553 17.8373 6.25293 17.7347 6.25293 17.6082V15.7748Z" fill="black"/>
</svg>
